<svg xmlns="http://www.w3.org/2000/svg" xmlns:xlink="http://www.w3.org/1999/xlink" width="500" zoomAndPan="magnify" viewBox="0 0 375 80.249996" height="107" preserveAspectRatio="xMidYMid meet" version="1.0"><defs><clipPath id="6d683b8232"><path d="M 1.734375 0.0898438 L 69 0.0898438 L 69 67 L 1.734375 67 Z M 1.734375 0.0898438 " clip-rule="nonzero"/></clipPath></defs><g clip-path="url(#6d683b8232)"><path fill="#94488f" d="M 35.828125 0.390625 C 41.113281 4.824219 56.839844 18.410156 57.101562 18.765625 C 57.839844 19.796875 58.019531 21.46875 57.511719 22.527344 C 56.632812 24.3125 43.707031 47.050781 43.292969 47.503906 C 42.609375 48.300781 41.140625 49.261719 40.109375 49.601562 C 38.984375 49.972656 34.582031 50.660156 34.101562 50.535156 C 33.894531 50.496094 33.59375 50.316406 33.441406 50.164062 C 32.835938 49.5625 32.890625 49.425781 39.628906 37.074219 C 43.128906 30.652344 46.164062 25.023438 46.394531 24.542969 C 46.753906 23.761719 46.792969 23.570312 46.738281 22.691406 C 46.617188 20.8125 47.136719 21.359375 35.925781 11.21875 C 30.367188 6.195312 25.703125 1.96875 25.550781 1.832031 C 25.277344 1.597656 25.207031 1.613281 23.835938 2.09375 C 22.296875 2.628906 19.527344 3.902344 18.441406 4.578125 L 17.78125 4.988281 L 27.621094 13.402344 C 38.53125 22.734375 38.09375 22.292969 38.21875 24.105469 C 38.273438 24.765625 38.21875 25.160156 38.023438 25.640625 C 37.886719 25.984375 34.71875 31.695312 30.984375 38.324219 C 23.339844 51.882812 23.628906 51.457031 21.472656 52.511719 C 20.515625 52.980469 20.007812 53.117188 17.894531 53.472656 C 16.546875 53.691406 15.214844 53.882812 14.941406 53.882812 C 13.996094 53.882812 13.460938 53.210938 13.707031 52.320312 C 13.777344 52.046875 16.808594 46.390625 20.417969 39.75 C 24.519531 32.230469 27.058594 27.425781 27.15625 27.015625 C 27.402344 25.875 26.992188 24.351562 26.210938 23.5 C 25.480469 22.734375 11.511719 10.105469 11.375 10.105469 C 11.195312 10.105469 9.410156 12.152344 8.328125 13.621094 C 5.019531 18.082031 2.949219 23.171875 2.082031 29.003906 C 1.796875 30.871094 1.769531 35.578125 2.015625 37.417969 C 3.289062 46.859375 7.941406 54.777344 15.449219 60.308594 C 20.515625 64.039062 26.6875 66.261719 33.113281 66.632812 C 42.71875 67.210938 51.980469 63.667969 58.746094 56.835938 C 71.632812 43.839844 71.59375 22.898438 58.652344 9.886719 C 52.804688 4.027344 45.378906 0.746094 36.679688 0.15625 L 35.445312 0.0742188 Z M 35.828125 0.390625 " fill-opacity="1" fill-rule="nonzero"/></g><path fill="#94488f" d="M 88.828125 10.792969 C 85.578125 11.21875 82.613281 12.714844 80.898438 14.8125 C 79.742188 16.226562 78.757812 18.3125 78.261719 20.359375 C 78.125 20.90625 76.65625 30.128906 74.980469 40.875 L 71.933594 60.402344 L 77.34375 60.445312 C 80.335938 60.457031 82.789062 60.445312 82.832031 60.402344 C 82.871094 60.375 83.574219 56.039062 84.394531 50.769531 C 85.207031 45.511719 85.933594 41.164062 85.988281 41.109375 C 86.042969 41.054688 90.132812 40.890625 95.074219 40.722656 C 100.011719 40.558594 104.074219 40.410156 104.089844 40.382812 C 104.171875 40.3125 105.515625 31.335938 105.460938 31.28125 C 105.433594 31.253906 101.441406 31.078125 96.582031 30.898438 C 91.722656 30.707031 87.71875 30.515625 87.675781 30.488281 C 87.59375 30.390625 88.554688 24.132812 88.761719 23.40625 C 88.964844 22.664062 89.636719 21.8125 90.296875 21.46875 L 90.886719 21.15625 L 100.601562 21.113281 C 105.941406 21.097656 110.304688 21.03125 110.304688 20.976562 C 110.320312 20.921875 110.648438 18.835938 111.046875 16.351562 C 111.445312 13.855469 111.761719 11.808594 111.746094 11.78125 C 111.691406 11.710938 107.5625 11.34375 105.226562 11.203125 C 99.011719 10.847656 90.203125 10.628906 88.828125 10.792969 Z M 88.828125 10.792969 " fill-opacity="1" fill-rule="nonzero"/><path fill="#94488f" d="M 114.148438 11.617188 C 114.148438 11.917969 120.816406 59.46875 120.957031 60.101562 L 121.039062 60.472656 L 127.707031 60.445312 L 134.390625 60.402344 L 138.261719 51.414062 C 140.386719 46.472656 142.183594 42.34375 142.242188 42.234375 C 142.324219 42.109375 142.871094 45.320312 143.707031 50.878906 C 144.449219 55.738281 145.09375 59.882812 145.121094 60.085938 L 145.203125 60.472656 L 157.746094 60.472656 L 163.523438 47.132812 C 166.710938 39.789062 171.5 28.730469 174.160156 22.554688 L 179.019531 11.34375 L 167.464844 11.34375 L 160.339844 28.632812 C 156.417969 38.144531 153.164062 45.882812 153.109375 45.828125 C 152.863281 45.554688 152.246094 40.957031 152.011719 37.757812 C 151.804688 34.863281 151.929688 28.523438 152.230469 25.75 C 152.699219 21.429688 153.546875 17.160156 154.699219 13.289062 L 155.277344 11.34375 L 149.457031 11.371094 L 143.640625 11.410156 L 136.695312 28.566406 C 132.882812 37.992188 129.738281 45.746094 129.710938 45.773438 C 129.683594 45.800781 129.628906 45.800781 129.601562 45.773438 C 129.574219 45.746094 128.679688 38.15625 127.609375 28.90625 C 126.539062 19.660156 125.636719 11.933594 125.59375 11.710938 L 125.511719 11.34375 L 119.828125 11.34375 C 114.230469 11.34375 114.148438 11.34375 114.148438 11.617188 Z M 114.148438 11.617188 " fill-opacity="1" fill-rule="nonzero"/><path fill="#94488f" d="M 182.148438 11.644531 C 182.121094 11.824219 180.378906 22.734375 178.304688 35.90625 C 176.234375 49.082031 174.488281 59.992188 174.449219 60.171875 L 174.378906 60.484375 L 186.5 60.429688 C 199.671875 60.375 199.863281 60.363281 202.636719 59.566406 C 209.320312 57.632812 213.121094 52.128906 215.289062 41.257812 C 216.921875 33.050781 217.113281 26.4375 215.851562 21.484375 C 214.519531 16.214844 211.640625 13.070312 206.960938 11.78125 L 205.613281 11.410156 L 193.921875 11.371094 L 182.230469 11.328125 Z M 202.554688 21.195312 C 204.050781 21.800781 204.984375 23.046875 205.492188 25.132812 C 205.820312 26.425781 205.820312 30.472656 205.492188 32.957031 C 204.0625 44.03125 201.828125 49.066406 197.640625 50.617188 C 196.875 50.894531 196.558594 50.921875 191.863281 50.976562 C 189.121094 51.003906 186.882812 50.976562 186.882812 50.90625 C 186.882812 50.851562 187.9375 44.046875 189.242188 35.796875 L 191.617188 20.796875 L 196.695312 20.839844 C 201.621094 20.878906 201.800781 20.894531 202.554688 21.195312 Z M 202.554688 21.195312 " fill-opacity="1" fill-rule="nonzero"/><path fill="#696865" d="M 294.28125 10.863281 C 293.539062 11.121094 292.992188 11.699219 292.773438 12.441406 C 292.675781 12.78125 292.386719 14.582031 292.128906 16.449219 C 291.6875 19.6875 291.6875 19.863281 291.90625 20.316406 C 292.347656 21.25 292.496094 21.292969 296.1875 21.332031 C 298 21.359375 299.796875 21.347656 300.195312 21.292969 C 301.019531 21.195312 301.691406 20.785156 302.050781 20.179688 C 302.363281 19.644531 303.3125 13.222656 303.214844 12.261719 C 303.148438 11.535156 302.859375 11.121094 302.199219 10.847656 C 301.570312 10.574219 295.050781 10.585938 294.28125 10.863281 Z M 294.28125 10.863281 " fill-opacity="1" fill-rule="nonzero"/><path fill="#696865" d="M 235.464844 24.242188 C 229.300781 24.765625 225.652344 26.917969 223.332031 31.378906 C 222.125 33.710938 221.34375 36.222656 220.519531 40.449219 C 218.691406 49.863281 219.1875 55.476562 222.136719 58.425781 C 223.140625 59.441406 224.183594 60.03125 225.746094 60.484375 C 226.597656 60.734375 227.214844 60.789062 229.796875 60.84375 C 235.160156 60.964844 240.761719 60.375 245.082031 59.222656 L 246.125 58.949219 L 246.484375 56.726562 C 246.675781 55.503906 246.828125 54.503906 246.8125 54.488281 C 246.796875 54.476562 245.949219 54.585938 244.933594 54.722656 C 240.457031 55.3125 238.359375 55.464844 233.816406 55.464844 C 229.535156 55.464844 229.316406 55.449219 228.339844 55.148438 C 227.121094 54.761719 226.214844 53.941406 225.800781 52.855469 C 225.429688 51.839844 225.363281 49.300781 225.652344 47.230469 C 225.773438 46.324219 225.882812 45.570312 225.898438 45.554688 C 225.910156 45.539062 226.296875 45.625 226.75 45.734375 C 229.464844 46.363281 234.734375 46.570312 237.726562 46.144531 C 246.113281 44.949219 250.601562 40.929688 251.230469 34.066406 C 251.535156 30.925781 250.859375 28.785156 249.0625 27.082031 C 247.046875 25.1875 244.039062 24.3125 239.03125 24.1875 C 237.78125 24.144531 236.175781 24.171875 235.464844 24.242188 Z M 242.242188 30.074219 C 243.421875 30.320312 244.289062 30.828125 244.753906 31.53125 C 245.042969 31.96875 245.125 32.285156 245.179688 33.164062 C 245.425781 37.5 241.953125 40.339844 235.382812 41.175781 C 233.117188 41.464844 230.523438 41.5625 228.492188 41.425781 C 227.488281 41.355469 226.625 41.257812 226.585938 41.203125 C 226.433594 41.054688 227.351562 37.019531 227.832031 35.742188 C 228.4375 34.136719 229.054688 33.148438 230.042969 32.214844 C 231.457031 30.898438 233.253906 30.15625 235.695312 29.867188 C 237.164062 29.703125 241.089844 29.828125 242.242188 30.074219 Z M 242.242188 30.074219 " fill-opacity="1" fill-rule="nonzero"/><path fill="#696865" d="M 264.253906 24.460938 C 260.535156 25.132812 258.175781 27.289062 257.144531 30.964844 C 256.996094 31.53125 256.664062 33.136719 256.433594 34.535156 C 255.609375 39.460938 255.925781 41.699219 257.679688 43.453125 C 258.039062 43.8125 258.738281 44.292969 259.21875 44.527344 C 261.03125 45.390625 261.222656 45.417969 268.605469 45.5 C 275.164062 45.582031 275.34375 45.597656 275.988281 45.882812 C 276.511719 46.117188 276.703125 46.308594 276.90625 46.777344 C 277.058594 47.105469 277.183594 47.558594 277.183594 47.777344 C 277.183594 48.476562 276.398438 52.691406 276.167969 53.265625 C 275.878906 53.953125 275.234375 54.640625 274.507812 55.023438 C 273.957031 55.324219 273.902344 55.324219 264.324219 55.367188 L 254.675781 55.40625 L 254.605469 55.710938 C 254.484375 56.339844 254.003906 59.566406 254.042969 59.605469 C 254.15625 59.71875 257.171875 60.085938 260.027344 60.320312 C 265.324219 60.773438 268.152344 60.925781 271.625 60.9375 C 274.367188 60.953125 275.097656 60.910156 276.015625 60.707031 C 279.40625 59.921875 281.421875 57.878906 282.34375 54.296875 C 282.617188 53.183594 283.359375 47.941406 283.359375 47.035156 C 283.34375 45.0625 282.644531 43.261719 281.382812 42.015625 C 280.394531 41.039062 279.515625 40.546875 278.046875 40.132812 C 277.019531 39.832031 276.714844 39.832031 270.457031 39.804688 C 266.875 39.789062 263.71875 39.734375 263.445312 39.695312 C 262.511719 39.542969 261.976562 38.445312 262.15625 37.019531 C 262.402344 35.070312 262.921875 32.296875 263.128906 31.898438 C 263.582031 31.007812 264.363281 30.335938 265.433594 29.964844 C 265.722656 29.855469 268.960938 29.785156 275.125 29.730469 L 284.386719 29.664062 L 284.742188 27.578125 L 285.101562 25.492188 L 284.8125 25.421875 C 284.222656 25.269531 281.023438 24.929688 278.347656 24.722656 C 271.609375 24.214844 266.191406 24.105469 264.253906 24.460938 Z M 264.253906 24.460938 " fill-opacity="1" fill-rule="nonzero"/><path fill="#696865" d="M 360.347656 24.449219 C 357.574219 24.914062 355.214844 25.847656 351.300781 28.03125 C 350.453125 28.523438 349.722656 28.894531 349.710938 28.878906 C 349.695312 28.851562 349.574219 28.34375 349.4375 27.742188 C 349.3125 27.136719 349.121094 26.230469 348.996094 25.710938 L 348.789062 24.792969 L 346.511719 24.820312 L 344.234375 24.859375 L 341.449219 42.425781 C 339.925781 52.085938 338.664062 60.101562 338.664062 60.226562 C 338.664062 60.457031 338.894531 60.472656 341.667969 60.472656 L 344.675781 60.472656 L 344.757812 60.085938 C 344.894531 59.457031 348.957031 33.792969 348.957031 33.601562 C 348.957031 33.230469 354.402344 30.898438 356.558594 30.347656 C 358.082031 29.964844 361.03125 29.664062 362.117188 29.800781 C 363.941406 30.007812 365.230469 30.855469 365.847656 32.230469 C 366.453125 33.617188 366.371094 34.34375 364.214844 47.859375 C 363.144531 54.542969 362.265625 60.113281 362.265625 60.238281 C 362.265625 60.445312 362.570312 60.472656 365.273438 60.472656 L 368.277344 60.472656 L 368.359375 60.019531 C 368.402344 59.785156 369.320312 54.117188 370.378906 47.433594 C 372.160156 36.277344 372.328125 35.136719 372.328125 33.4375 C 372.339844 31.28125 372.121094 30.226562 371.351562 28.632812 C 370.308594 26.507812 368.210938 24.96875 365.671875 24.449219 C 364.40625 24.199219 361.816406 24.199219 360.347656 24.449219 Z M 360.347656 24.449219 " fill-opacity="1" fill-rule="nonzero"/><path fill="#696865" d="M 316.253906 24.515625 C 311.285156 25.421875 307.675781 28.785156 305.316406 34.726562 C 303.683594 38.84375 302.597656 46.226562 302.96875 50.589844 C 303.476562 56.300781 305.714844 59.375 310.214844 60.5 C 311.792969 60.898438 315.511719 60.925781 317.527344 60.566406 C 319.410156 60.226562 322.195312 59.46875 323.675781 58.90625 C 324.390625 58.632812 325.007812 58.414062 325.0625 58.414062 C 325.160156 58.414062 324.046875 65.90625 323.71875 67.511719 C 323.140625 70.257812 320.851562 72.535156 318.269531 72.960938 C 317.816406 73.042969 313.753906 73.097656 308.9375 73.097656 L 300.417969 73.097656 L 300.101562 75.019531 C 299.921875 76.074219 299.824219 76.980469 299.867188 77.023438 C 299.910156 77.0625 303.738281 77.476562 308.363281 77.929688 C 319.382812 79 320.234375 78.972656 323.085938 77.570312 C 326.296875 75.992188 328.464844 73.070312 329.550781 68.871094 C 329.839844 67.746094 336.496094 26.164062 336.398438 26.054688 C 336.273438 25.917969 329.703125 25.050781 326.175781 24.722656 C 323.539062 24.460938 317.214844 24.339844 316.253906 24.515625 Z M 329.675781 30.308594 C 329.632812 30.554688 328.769531 35.90625 327.753906 42.207031 C 326.75 48.492188 325.871094 53.691406 325.804688 53.746094 C 325.640625 53.914062 321.769531 54.789062 320.136719 55.050781 C 318.121094 55.367188 314.234375 55.476562 313.125 55.269531 C 310.96875 54.84375 309.746094 53.597656 309.210938 51.320312 C 308.609375 48.710938 309.363281 41.933594 310.734375 37.730469 C 312.136719 33.394531 314.425781 30.679688 317.253906 30.007812 C 317.515625 29.949219 320.4375 29.894531 323.746094 29.882812 L 329.757812 29.867188 Z M 329.675781 30.308594 " fill-opacity="1" fill-rule="nonzero"/><path fill="#696865" d="M 290.519531 42.453125 C 288.984375 52.183594 287.734375 60.210938 287.734375 60.292969 C 287.75 60.429688 288.449219 60.472656 290.769531 60.472656 C 292.429688 60.472656 293.789062 60.429688 293.789062 60.390625 C 293.789062 60.253906 299.277344 25.585938 299.359375 25.160156 L 299.441406 24.792969 L 293.308594 24.792969 Z M 290.519531 42.453125 " fill-opacity="1" fill-rule="nonzero"/><path fill="#94488f" d="M 294.609375 10.785156 C 293.867188 11.046875 293.320312 11.625 293.097656 12.367188 C 293.003906 12.710938 292.714844 14.507812 292.453125 16.378906 C 292.011719 19.621094 292.011719 19.796875 292.234375 20.253906 C 292.671875 21.1875 292.824219 21.226562 296.519531 21.269531 C 298.332031 21.296875 300.132812 21.28125 300.53125 21.226562 C 301.355469 21.132812 302.027344 20.71875 302.386719 20.113281 C 302.703125 19.578125 303.652344 13.148438 303.554688 12.1875 C 303.484375 11.457031 303.195312 11.046875 302.539062 10.773438 C 301.90625 10.496094 295.378906 10.511719 294.609375 10.785156 Z M 294.609375 10.785156 " fill-opacity="1" fill-rule="nonzero"/></svg>